<mxfile host="app.diagrams.net" modified="2024-06-11T21:39:46.609Z" agent="Mozilla/5.0 (Windows NT 10.0; Win64; x64) AppleWebKit/537.36 (KHTML, like Gecko) Chrome/125.0.0.0 Safari/537.36 Edg/125.0.0.0" version="24.5.3" etag="NU-_K0-cGoecHbkP0Nhi" type="github">
  <diagram name="Page-1" id="pMhAsmLcn-hVoUHGe8hx">
    <mxGraphModel>
      <root>
        <mxCell id="0" />
        <mxCell id="1" parent="0" />
      </root>
    </mxGraphModel>
  </diagram>
</mxfile>
